<?xml version="1.0" encoding="UTF-8"?>
<svg id="Capa_1" data-name="Capa 1" xmlns="http://www.w3.org/2000/svg" viewBox="0 0 1920 382.49">
  <defs>
    <style>
      .cls-1 {
        fill: #d69f53;
      }

      .cls-2 {
        fill: #d69e51;
      }
    </style>
  </defs>
  <path class="cls-2" d="M1029.87,363.17c.83-9.48,30.1-2.71,29.86-33.71l-1.03-136.43c-.15-19.51-8.95-41.47-30.15-46.62-19.55-4.75-55.89,7.73-63.77,27.33-6.23,52.46-.15,103.43-2.48,155.7-1.22,27.41,27.19,26.42,29.75,33.12.62,1.63-1.29,6.53-4.84,6.26-40.56-3.02-76.86,3.86-120.81-3.64,25.26-12.81,35.83-19.42,35.7-43.49l-.85-167.22c-.14-27.55-27.13-27.05-29.19-30.39-9.77-15.88,75.38-5.44,89.61-7.52,2.28,13.23-1.52,24.75,2.75,40.06,27.82-18.25,52.81-37.37,84.64-43.95,33.96-7.02,62.84,8.26,69.19,46.3,39.64-27.47,96.46-68.07,135.99-36.88,11.86,9.36,20.86,28.18,21.09,47.82l1.92,163.32c.29,24.4,28.91,24.87,27.8,25.89,1.1-1.01,2.34,8.9.9,8.88-41.66-.56-79.89,2.91-125.12-1.8,22.17-14.72,35.43-17.13,35.15-40.69l-1.55-132.39c-.23-20-8.39-41.39-30.08-46.93-18.99-4.85-55.7,8.03-62.04,26.97l-2.39,152.05c-.36,23.19,13.44,26.97,35.69,40.62-43.71,6.19-80.74.16-122.09,3.06-3.33.23-3.8-4.23-3.67-5.72Z"/>
  <path class="cls-2" d="M622.85,191.17c-.23-16.33-7.99-29.91-16.52-37.01-26.59-22.12-75.93-.31-93.07,23.41l-2.24,147.94c-.34,22.68,12.8,27.07,34.84,39.65-42.78,7.5-79.53.71-119.56,3.6-4.2.3-6.27-3.92-5.84-6.27,1.42-7.68,30.05-3.06,30.05-33.15l-.08-276.36c0-25.63-25.82-24.73-29.65-30.01-11.36-15.65,76.77-5.7,90.21-7.88l1.12,147.54c39.18-31.3,109.97-73.65,151.89-38.41,11.12,9.35,19.51,26.99,19.73,45.38l1.98,163.59c.28,23.29,27.88,25.84,28.19,25.75,1.43-.4,1.54,9.42-.04,9.36-41.32-1.46-80.08,3.25-125.13-2.43,24.86-13.86,36.34-19.68,35.99-44.35l-1.87-130.34Z"/>
  <path class="cls-1" d="M1668.72,371.67c-48.07,5.95-102.55-9.93-111.5-57.25-5.09-26.9,2.81-49.84,21.1-68.02,36.82-36.6,113.15-41.3,153.1-.58,3.97-38.48,4.48-108.83-35.82-121.49-17.89-5.62-35.46-3.97-47.79,8.79-19.98,20.68-2.25,65.64-32.89,72.94-12.53,2.99-25.14-4.37-29.37-18.51-8.14-27.22,7.13-55.17,34.83-65.77,39.83-15.25,86.33-15.09,125.99,2.58,29.7,13.23,45.87,44.45,46.07,76.47l.81,128.47c.13,21.07,14.23,23.6,34.73,35.54-33.61,8.14-61.75.99-93.65,3.86-3.6-10.37,1.42-17.81-4.24-29.64-17.26,18.98-36.57,29.55-61.38,32.62ZM1730.39,317c4.24-14.78,4.78-33.81-1.27-48.67-11.18-27.46-44.67-35.73-69.82-28.9-27.16,7.37-42.98,34.12-42.5,62.64.39,23.45,13.18,43.24,31.39,51.09,38.09,16.42,76.55-16.41,82.21-36.15Z"/>
  <path class="cls-1" d="M290.73,275.34l-126.11-.53c-7.02,19.05-27.79,60.44-21.5,74.47,3.9,8.68,18.93,6.71,19.91,13.22.45,3-1.28,5.68-5.66,5.69l-58.29.13c-4.94.01-7.49-1.82-7.01-5.78,1.13-9.26,29.38-2.35,40.46-32.28L246.96,21.14c1.63-4.41,3.81-5.82,6.11-6.2,4.57-.75,8.26.49,10.23,5.93l112.44,310.79c8.71,24.08,28.44,22.96,37.49,27.99,1.32.73,2.62,8.51.5,8.5l-123.01-.68c-3.22-.02,1.08-11.04,6.33-11.08,11.36-.1,17.44-12.79,13.93-22.88l-20.25-58.16ZM284.9,261.37l-57.25-156.54-59.78,159.74c41.16-1.55,79.02,4.51,117.03-3.2Z"/>
  <path class="cls-2" d="M1484.24,362.5c-61.26,23.78-153.96,7.07-157.66-52.25-.73-11.76,3.94-21.45,10.53-26.43,8.14-6.16,20.03-8,28.79-1.6,22.15,16.21,4.88,48.69,25.9,69.56,17.91,17.8,65.54,15.57,79.18-12.97,6.52-13.64,3-31.71-8.3-44.47-38.67-43.65-140.29-55.73-131.43-125.91,7-55.47,99.52-72.51,156.09-43.05,21.56,11.22,35.87,32.18,33.52,55.78-1.65,16.55-14.34,27.74-28.83,26.31-37.79-3.72-8.81-60.58-47.81-80.98-17.13-8.96-41.12-6.27-54.29,9.79-11.58,14.12-6.11,33.59,6.01,45.3,38.62,37.31,146.23,57.64,129.54,135.55-3.92,18.31-19.45,36.9-41.23,45.36Z"/>
  <path class="cls-1" d="M858.19,365.36c-18.02,3.41-128.93,7.51-125.23-2.77,2.77-7.7,30.04-3.9,30.03-33.23l-.06-175.23c0-29.69-30.32-24.66-30.06-33.09.32-10.13,73.59-3.42,90.94-4.75l.1,212.34c.01,21.32,13.87,23.85,34.28,36.72Z"/>
  <ellipse class="cls-2" cx="793.3" cy="48.55" rx="38.99" ry="38.98"/>
</svg>